<svg width="1200" height="339" viewBox="0 0 1200 339" fill="none" xmlns="http://www.w3.org/2000/svg">
<line y1="-0.5" x2="1080" y2="-0.5" transform="matrix(0.866025 -0.5 0.866025 0.5 -395.001 64.0005)" stroke="#30393C"/>
<line y1="-0.5" x2="1080" y2="-0.5" transform="matrix(0.866025 -0.5 0.866025 0.5 -363.824 82.0005)" stroke="#30393C"/>
<line y1="-0.5" x2="1080" y2="-0.5" transform="matrix(0.866025 -0.5 0.866025 0.5 -332.647 100)" stroke="#30393C"/>
<line y1="-0.5" x2="1080" y2="-0.5" transform="matrix(0.866025 -0.5 0.866025 0.5 -301.47 118)" stroke="#30393C"/>
<line y1="-0.5" x2="1080" y2="-0.5" transform="matrix(0.866025 -0.5 0.866025 0.5 -270.294 136)" stroke="#30393C"/>
<line y1="-0.5" x2="1080" y2="-0.5" transform="matrix(0.866025 -0.5 0.866025 0.5 -239.116 154)" stroke="#30393C"/>
<line y1="-0.5" x2="1080" y2="-0.5" transform="matrix(0.866025 -0.5 0.866025 0.5 -207.939 172)" stroke="#30393C"/>
<line y1="-0.5" x2="1080" y2="-0.5" transform="matrix(0.866025 -0.5 0.866025 0.5 -176.763 190)" stroke="#30393C"/>
<line y1="-0.5" x2="1080" y2="-0.5" transform="matrix(0.866025 -0.5 0.866025 0.5 -145.585 208)" stroke="#30393C"/>
<line y1="-0.5" x2="1080" y2="-0.5" transform="matrix(0.866025 -0.5 0.866025 0.5 -114.408 226)" stroke="#30393C"/>
<line y1="-0.5" x2="1080" y2="-0.5" transform="matrix(0.866025 -0.5 0.866025 0.5 -83.2324 244)" stroke="#30393C"/>
<line y1="-0.5" x2="1080" y2="-0.5" transform="matrix(0.866025 -0.5 0.866025 0.5 -52.0547 262)" stroke="#30393C"/>
<line y1="-0.5" x2="1080" y2="-0.5" transform="matrix(0.866025 -0.5 0.866025 0.5 -20.8779 280)" stroke="#30393C"/>
<line y1="-0.5" x2="1080" y2="-0.5" transform="matrix(0.866025 -0.5 0.866025 0.5 10.2988 298)" stroke="#30393C"/>
<line y1="-0.5" x2="1080" y2="-0.5" transform="matrix(0.866025 -0.5 0.866025 0.5 41.4756 316)" stroke="#30393C"/>
<line y1="-0.5" x2="1080" y2="-0.5" transform="matrix(0.866025 -0.5 0.866025 0.5 72.6533 334)" stroke="#30393C"/>
<line y1="-0.5" x2="1080" y2="-0.5" transform="matrix(0.866025 -0.5 0.866025 0.5 103.83 352)" stroke="#30393C"/>
<line y1="-0.5" x2="1080" y2="-0.5" transform="matrix(0.866025 -0.5 0.866025 0.5 135.007 370)" stroke="#30393C"/>
<line y1="-0.5" x2="1080" y2="-0.5" transform="matrix(0.866025 -0.5 0.866025 0.5 166.184 388)" stroke="#30393C"/>
<line y1="-0.5" x2="1080" y2="-0.5" transform="matrix(0.866025 -0.5 0.866025 0.5 197.36 406)" stroke="#30393C"/>
<line y1="-0.5" x2="1080" y2="-0.5" transform="matrix(0.866025 -0.5 0.866025 0.5 228.537 424)" stroke="#30393C"/>
<line y1="-0.5" x2="1080" y2="-0.5" transform="matrix(0.866025 -0.5 0.866025 0.5 259.715 442)" stroke="#30393C"/>
<line y1="-0.5" x2="1080" y2="-0.5" transform="matrix(0.866025 -0.5 0.866025 0.5 290.892 460)" stroke="#30393C"/>
<line y1="-0.5" x2="1080" y2="-0.5" transform="matrix(0.866025 -0.5 0.866025 0.5 322.068 478)" stroke="#30393C"/>
<line y1="-0.5" x2="1080" y2="-0.5" transform="matrix(0.866025 -0.5 0.866025 0.5 353.245 496)" stroke="#30393C"/>
<line y1="-0.5" x2="1080" y2="-0.5" transform="matrix(0.866025 -0.5 0.866025 0.5 384.423 514)" stroke="#30393C"/>
<line y1="-0.5" x2="1080" y2="-0.5" transform="matrix(0.866025 -0.5 0.866025 0.5 415.6 532)" stroke="#30393C"/>
<line y1="-0.5" x2="1080" y2="-0.5" transform="matrix(0.866025 -0.5 0.866025 0.5 446.776 550)" stroke="#30393C"/>
<line y1="-0.5" x2="1080" y2="-0.5" transform="matrix(0.866025 -0.5 0.866025 0.5 477.953 568)" stroke="#30393C"/>
<line y1="-0.5" x2="1080" y2="-0.5" transform="matrix(0.866025 -0.5 0.866025 0.5 509.13 586)" stroke="#30393C"/>
<line y1="-0.5" x2="1080" y2="-0.5" transform="matrix(0.866025 -0.5 0.866025 0.5 540.308 604)" stroke="#30393C"/>
<line y1="-0.5" x2="1080" y2="-0.5" transform="matrix(0.866025 0.5 -0.866026 0.5 559.978 -459.998)" stroke="#30393C"/>
<line y1="-0.5" x2="1080" y2="-0.5" transform="matrix(0.866025 0.5 -0.866026 0.5 528.801 -441.998)" stroke="#30393C"/>
<line y1="-0.5" x2="1080" y2="-0.5" transform="matrix(0.866025 0.5 -0.866026 0.5 497.624 -423.997)" stroke="#30393C"/>
<line y1="-0.5" x2="1080" y2="-0.5" transform="matrix(0.866025 0.5 -0.866026 0.5 466.447 -405.997)" stroke="#30393C"/>
<line y1="-0.5" x2="1080" y2="-0.5" transform="matrix(0.866025 0.5 -0.866026 0.5 435.27 -387.998)" stroke="#30393C"/>
<line y1="-0.5" x2="1080" y2="-0.5" transform="matrix(0.866025 0.5 -0.866026 0.5 404.093 -369.998)" stroke="#30393C"/>
<line y1="-0.5" x2="1080" y2="-0.5" transform="matrix(0.866025 0.5 -0.866026 0.5 372.916 -351.998)" stroke="#30393C"/>
<line y1="-0.5" x2="1080" y2="-0.5" transform="matrix(0.866025 0.5 -0.866026 0.5 341.739 -333.998)" stroke="#30393C"/>
<line y1="-0.5" x2="1080" y2="-0.5" transform="matrix(0.866025 0.5 -0.866026 0.5 310.562 -315.997)" stroke="#30393C"/>
<line y1="-0.5" x2="1080" y2="-0.5" transform="matrix(0.866025 0.5 -0.866026 0.5 279.386 -297.998)" stroke="#30393C"/>
<line y1="-0.5" x2="1080" y2="-0.5" transform="matrix(0.866025 0.5 -0.866026 0.5 248.208 -279.998)" stroke="#30393C"/>
<line y1="-0.5" x2="1080" y2="-0.5" transform="matrix(0.866025 0.5 -0.866026 0.5 217.031 -261.998)" stroke="#30393C"/>
<line y1="-0.5" x2="1080" y2="-0.5" transform="matrix(0.866025 0.5 -0.866026 0.5 185.854 -243.998)" stroke="#30393C"/>
<line y1="-0.5" x2="1080" y2="-0.5" transform="matrix(0.866025 0.5 -0.866026 0.5 154.678 -225.997)" stroke="#30393C"/>
<line y1="-0.5" x2="1080" y2="-0.5" transform="matrix(0.866025 0.5 -0.866026 0.5 123.501 -207.997)" stroke="#30393C"/>
<line y1="-0.5" x2="1080" y2="-0.5" transform="matrix(0.866025 0.5 -0.866026 0.5 92.3242 -189.998)" stroke="#30393C"/>
<line y1="-0.5" x2="1080" y2="-0.5" transform="matrix(0.866025 0.5 -0.866026 0.5 61.1475 -171.998)" stroke="#30393C"/>
<line y1="-0.5" x2="1080" y2="-0.5" transform="matrix(0.866025 0.5 -0.866026 0.5 29.9707 -153.998)" stroke="#30393C"/>
<line y1="-0.5" x2="1080" y2="-0.5" transform="matrix(0.866025 0.5 -0.866026 0.5 -1.20703 -135.998)" stroke="#30393C"/>
<line y1="-0.5" x2="1080" y2="-0.5" transform="matrix(0.866025 0.5 -0.866026 0.5 -32.3838 -117.998)" stroke="#30393C"/>
<line y1="-0.5" x2="1080" y2="-0.5" transform="matrix(0.866025 0.5 -0.866026 0.5 -63.5605 -99.998)" stroke="#30393C"/>
<line y1="-0.5" x2="1080" y2="-0.5" transform="matrix(0.866025 0.5 -0.866026 0.5 -94.7373 -81.998)" stroke="#30393C"/>
<line y1="-0.5" x2="1080" y2="-0.5" transform="matrix(0.866025 0.5 -0.866026 0.5 -125.914 -63.998)" stroke="#30393C"/>
<line y1="-0.5" x2="1080" y2="-0.5" transform="matrix(0.866025 0.5 -0.866026 0.5 -157.091 -45.998)" stroke="#30393C"/>
<line y1="-0.5" x2="1080" y2="-0.5" transform="matrix(0.866025 0.5 -0.866026 0.5 -188.269 -27.998)" stroke="#30393C"/>
<line y1="-0.5" x2="1080" y2="-0.5" transform="matrix(0.866025 0.5 -0.866026 0.5 -219.445 -9.99805)" stroke="#30393C"/>
<line y1="-0.5" x2="1080" y2="-0.5" transform="matrix(0.866025 0.5 -0.866026 0.5 -250.621 8.00195)" stroke="#30393C"/>
<line y1="-0.5" x2="1080" y2="-0.5" transform="matrix(0.866025 0.5 -0.866026 0.5 -281.799 26.002)" stroke="#30393C"/>
<line y1="-0.5" x2="1080" y2="-0.5" transform="matrix(0.866025 0.5 -0.866026 0.5 -312.977 44.002)" stroke="#30393C"/>
<line y1="-0.5" x2="1080" y2="-0.5" transform="matrix(0.866025 0.5 -0.866026 0.5 -344.153 62.002)" stroke="#30393C"/>
<line y1="-0.5" x2="1080" y2="-0.5" transform="matrix(0.866025 0.5 -0.866026 0.5 -375.33 80.002)" stroke="#30393C"/>
<g filter="url(#filter0_f_875_6853)">
<ellipse cx="277.075" cy="225.849" rx="277.075" ry="225.849" transform="matrix(0.866025 -0.5 0.866025 0.5 164.001 89.459)" fill="#171C26"/>
</g>
<defs>
<filter id="filter0_f_875_6853" x="189.966" y="-214.891" width="819.16" height="557.473" filterUnits="userSpaceOnUse" color-interpolation-filters="sRGB">
<feFlood flood-opacity="0" result="BackgroundImageFix"/>
<feBlend mode="normal" in="SourceGraphic" in2="BackgroundImageFix" result="shape"/>
<feGaussianBlur stdDeviation="50" result="effect1_foregroundBlur_875_6853"/>
</filter>
</defs>
</svg>
