<svg width="150" height="90" viewBox="0 0 150 90" fill="none" xmlns="http://www.w3.org/2000/svg">
<g filter="url(#filter0_d_36_133)">
<g clip-path="url(#clip0_36_133)">
<rect width="86" height="86" rx="43" transform="matrix(0.866025 0.5 -0.866025 0.5 75 0)" fill="white"/>
<path d="M61.412 38.8675C61.3284 38.9208 61.2269 38.9638 61.1137 38.9938C61.0004 39.0238 60.8778 39.0401 60.7532 39.0419C60.6287 39.0436 60.5048 39.0308 60.3891 39.004C60.2735 38.9772 60.1685 38.9372 60.0805 38.8863L52.9163 34.75C52.6227 34.581 52.4367 34.3596 52.3886 34.1218C52.3406 33.884 52.4333 33.6438 52.6516 33.4403C52.8052 33.3034 53.0093 33.1878 53.2493 33.1017C53.4893 33.0157 53.7593 32.9613 54.04 32.9425C56.706 32.7267 59.4233 32.9137 61.9268 33.4853C61.8591 32.6389 62.1437 31.7954 62.7567 31.0255C63.3698 30.2556 64.2934 29.5818 65.4503 29.0604C66.6072 28.539 67.9637 28.1852 69.4061 28.0287C70.8484 27.8722 72.3348 27.9175 73.7406 28.1609C75.1464 28.4042 76.4308 28.8385 77.4861 29.4274C78.5414 30.0163 79.337 30.7425 79.8061 31.5454C80.2753 32.3483 80.4045 33.2044 80.1827 34.042C79.961 34.8796 79.3948 35.6744 78.5317 36.3597C78.4148 36.4513 78.2492 36.5184 78.0601 36.5508C77.8711 36.5831 77.6689 36.5789 77.4844 36.5388C74.8496 35.9794 71.9927 35.8669 69.2508 36.2144C66.5088 36.5619 63.9963 37.3549 62.0096 38.5C61.8017 38.62 61.5971 38.7381 61.412 38.8675ZM92.4119 55.0947C92.7866 53.558 92.4655 51.9915 91.4799 50.5478C92.9459 50.5869 94.4069 50.4226 95.7404 50.0686C97.0738 49.7147 98.241 49.1814 99.1441 48.5135C100.047 47.8455 100.66 47.0624 100.931 46.2296C101.202 45.3969 101.124 44.5387 100.702 43.7271C100.281 42.9154 99.5283 42.1739 98.5084 41.5646C97.4885 40.9553 96.2305 40.496 94.8399 40.2251C93.4492 39.9543 91.9664 39.8797 90.5156 40.0077C89.0648 40.1357 87.6883 40.4626 86.5013 40.9609C86.3425 41.0284 86.2263 41.1241 86.1703 41.2332C86.1144 41.3424 86.1217 41.4591 86.1912 41.5656C87.16 43.0868 87.3549 44.7362 86.753 46.3193C86.1511 47.9023 84.7775 49.353 82.7942 50.5C82.5863 50.62 82.3817 50.7381 82.1576 50.845C82.0652 50.8933 81.9908 50.9519 81.9389 51.0173C81.887 51.0826 81.8586 51.1534 81.8556 51.2254C81.8526 51.2973 81.8749 51.3688 81.9212 51.4355C81.9676 51.5023 82.037 51.563 82.1252 51.6138L89.2894 55.75C89.5821 55.9195 89.9656 56.0269 90.3775 56.0547C90.7893 56.0824 91.2053 56.0289 91.5578 55.9028C91.7955 55.8141 91.9962 55.696 92.1453 55.557C92.2944 55.4181 92.3883 55.2618 92.42 55.0994L92.4119 55.0947ZM70.9486 50.7991C73.2326 50.9739 75.5541 50.7312 77.5868 50.1049C79.6195 49.4787 81.2612 48.5005 82.2812 47.3077C83.3012 46.1149 83.6482 44.7676 83.2734 43.4551C82.8986 42.1426 81.8209 40.9309 80.1917 39.9903C78.5626 39.0497 76.4638 38.4275 74.1905 38.2111C71.9172 37.9947 69.5836 38.1951 67.5177 38.784C65.4518 39.3729 63.7574 40.3207 62.6727 41.4943C61.5881 42.6679 61.1676 44.0082 61.4705 45.3269C58.1808 44.5759 54.5612 44.4527 51.1415 44.9753C50.83 45.0235 50.5459 45.1182 50.3179 45.2499C50.0898 45.3815 49.9258 45.5456 49.8424 45.7254C49.759 45.9053 49.759 46.0947 49.8425 46.2745C49.9261 46.4544 50.0901 46.6184 50.3182 46.75L68.5048 57.25C68.7328 57.3817 69.0168 57.4764 69.3283 57.5246C69.6398 57.5729 69.9678 57.5729 70.2794 57.5247C70.5909 57.4765 70.875 57.3819 71.103 57.2502C71.3311 57.1186 71.4951 56.9545 71.5786 56.7747C72.4825 54.798 72.2657 52.706 70.9599 50.8056L70.9486 50.7991Z" fill="#308CE1"/>
</g>
<rect x="-2.98023e-08" y="0.5" width="85" height="85" rx="42.5" transform="matrix(0.866025 0.5 -0.866025 0.5 75.433 0.25)" stroke="#F6F5F4"/>
</g>
<defs>
<filter id="filter0_d_36_133" x="-11.478" y="-8" width="172.956" height="110" filterUnits="userSpaceOnUse" color-interpolation-filters="sRGB">
<feFlood flood-opacity="0" result="BackgroundImageFix"/>
<feColorMatrix in="SourceAlpha" type="matrix" values="0 0 0 0 0 0 0 0 0 0 0 0 0 0 0 0 0 0 127 0" result="hardAlpha"/>
<feOffset dy="4"/>
<feGaussianBlur stdDeviation="6"/>
<feComposite in2="hardAlpha" operator="out"/>
<feColorMatrix type="matrix" values="0 0 0 0 0.962748 0 0 0 0 0.952221 0 0 0 0 0.950156 0 0 0 1 0"/>
<feBlend mode="normal" in2="BackgroundImageFix" result="effect1_dropShadow_36_133"/>
<feBlend mode="normal" in="SourceGraphic" in2="effect1_dropShadow_36_133" result="shape"/>
</filter>
<clipPath id="clip0_36_133">
<rect width="86" height="86" rx="43" transform="matrix(0.866025 0.5 -0.866025 0.5 75 0)" fill="white"/>
</clipPath>
</defs>
</svg>
