<svg width="150" height="90" viewBox="0 0 150 90" fill="none" xmlns="http://www.w3.org/2000/svg">
<g filter="url(#filter0_d_36_131)">
<g clip-path="url(#clip0_36_131)">
<rect width="86" height="86" rx="43" transform="matrix(0.866025 0.5 -0.866025 0.5 75 0)" fill="white"/>
<path d="M103.764 43C103.767 40.6157 102.378 38.3005 99.8222 36.4278C97.2662 34.5551 93.6918 33.2342 89.676 32.6783C85.6601 32.1224 81.437 32.364 77.688 33.3639C73.9391 34.3638 70.8831 36.0639 69.0131 38.1897L51.0798 38.1897C50.5971 38.1886 50.1189 38.2429 49.6729 38.3494C49.2269 38.456 48.822 38.6126 48.4818 38.8103L43.8231 41.5C43.134 41.8978 42.7469 42.4374 42.7469 43C42.7469 43.5626 43.134 44.1022 43.8231 44.5L49.0192 47.5C49.3638 47.6989 49.831 47.8107 50.3183 47.8107C50.8055 47.8107 51.2728 47.6989 51.6173 47.5L54.2154 46L56.8135 47.5C57.158 47.6989 57.6253 47.8107 58.1125 47.8107C58.5997 47.8107 59.067 47.6989 59.4115 47.5L62.0096 46L64.6077 47.5C64.7782 47.5986 64.9807 47.6768 65.2036 47.7302C65.4265 47.7836 65.6654 47.8112 65.9067 47.8113L69.0131 47.8103C69.8898 48.8045 71.0335 49.7123 72.4019 50.5L72.4182 50.5094C74.9892 51.9902 78.2628 52.9978 81.8252 53.405C85.3877 53.8121 89.0793 53.6006 92.4336 52.797C95.788 51.9934 98.6545 50.6339 100.671 48.8901C102.688 47.1464 103.764 45.0967 103.764 43ZM89.2894 44.5C88.7756 44.2033 88.4256 43.8253 88.2839 43.4138C88.1421 43.0024 88.2148 42.5758 88.4929 42.1882C88.771 41.8006 89.242 41.4693 89.8462 41.2362C90.4504 41.0031 91.1608 40.8787 91.8875 40.8787C92.6142 40.8787 93.3246 41.0031 93.9288 41.2362C94.533 41.4693 95.0039 41.8006 95.282 42.1882C95.5601 42.5758 95.6329 43.0024 95.4911 43.4138C95.3494 43.8253 94.9994 44.2033 94.4856 44.5C93.7965 44.8978 92.862 45.1213 91.8875 45.1213C90.913 45.1213 89.9785 44.8978 89.2894 44.5Z" fill="#F5AD21"/>
</g>
<rect x="-2.98023e-08" y="0.5" width="85" height="85" rx="42.5" transform="matrix(0.866025 0.5 -0.866025 0.5 75.433 0.25)" stroke="#F6F5F4"/>
</g>
<defs>
<filter id="filter0_d_36_131" x="-11.4783" y="-8" width="172.957" height="110" filterUnits="userSpaceOnUse" color-interpolation-filters="sRGB">
<feFlood flood-opacity="0" result="BackgroundImageFix"/>
<feColorMatrix in="SourceAlpha" type="matrix" values="0 0 0 0 0 0 0 0 0 0 0 0 0 0 0 0 0 0 127 0" result="hardAlpha"/>
<feOffset dy="4"/>
<feGaussianBlur stdDeviation="6"/>
<feComposite in2="hardAlpha" operator="out"/>
<feColorMatrix type="matrix" values="0 0 0 0 0.962748 0 0 0 0 0.952221 0 0 0 0 0.950156 0 0 0 1 0"/>
<feBlend mode="normal" in2="BackgroundImageFix" result="effect1_dropShadow_36_131"/>
<feBlend mode="normal" in="SourceGraphic" in2="effect1_dropShadow_36_131" result="shape"/>
</filter>
<clipPath id="clip0_36_131">
<rect width="86" height="86" rx="43" transform="matrix(0.866025 0.5 -0.866025 0.5 75 0)" fill="white"/>
</clipPath>
</defs>
</svg>
