<svg width="500" height="290" viewBox="0 0 500 290" fill="none" xmlns="http://www.w3.org/2000/svg">
<rect width="288.218" height="288.218" rx="44" transform="matrix(0.866025 -0.5 0.866025 0.5 0 145)" fill="white"/>
<rect x="0.433013" width="287.718" height="287.718" rx="43.75" transform="matrix(0.866025 -0.5 0.866025 0.5 0.0580127 145.217)" stroke="#F6F3F2" stroke-opacity="0.5" stroke-width="0.5"/>
<path d="M311.044 146.25L296.899 138.083L307.483 131.972C313.098 128.731 316.247 124.331 316.238 119.742C316.229 115.152 313.063 110.749 307.435 107.5C301.808 104.251 294.181 102.423 286.232 102.418C278.283 102.413 270.663 104.231 265.048 107.472L254.463 113.583L240.318 105.417C238.443 104.334 235.9 103.724 233.25 103.723C230.601 103.721 228.061 104.327 226.189 105.407L176.794 133.926C174.922 135.006 173.872 136.473 173.876 138.003C173.879 139.533 174.934 141 176.81 142.083L247.535 182.917C249.411 184 251.953 184.609 254.603 184.611C257.253 184.612 259.793 184.006 261.664 182.926L311.06 154.407C312.931 153.327 313.981 151.86 313.978 150.331C313.975 148.801 312.919 147.333 311.044 146.25ZM272.121 111.556C275.864 109.395 280.944 108.182 286.243 108.186C291.542 108.189 296.627 109.408 300.379 111.574C304.13 113.74 306.241 116.676 306.247 119.735C306.253 122.795 304.154 125.728 300.411 127.889L289.826 134L261.536 117.667L272.121 111.556Z" fill="#040404"/>
<path d="M311.044 146.25L296.899 138.083L307.483 131.972C313.098 128.731 316.247 124.331 316.238 119.742C316.229 115.152 313.063 110.749 307.435 107.5C301.808 104.251 294.181 102.423 286.232 102.418C278.283 102.413 270.663 104.231 265.048 107.472L254.463 113.583L240.318 105.417C238.443 104.334 235.9 103.724 233.25 103.723C230.601 103.721 228.061 104.327 226.189 105.407L176.794 133.926C174.922 135.006 173.872 136.473 173.876 138.003C173.879 139.533 174.934 141 176.81 142.083L247.535 182.917C249.411 184 251.953 184.609 254.603 184.611C257.253 184.612 259.793 184.006 261.664 182.926L311.06 154.407C312.931 153.327 313.981 151.86 313.978 150.331C313.975 148.801 312.919 147.333 311.044 146.25ZM272.121 111.556C275.864 109.395 280.944 108.182 286.243 108.186C291.542 108.189 296.627 109.408 300.379 111.574C304.13 113.74 306.241 116.676 306.247 119.735C306.253 122.795 304.154 125.728 300.411 127.889L289.826 134L261.536 117.667L272.121 111.556Z" fill="url(#paint0_linear_36_125)"/>
<defs>
<linearGradient id="paint0_linear_36_125" x1="225.5" y1="155" x2="252.239" y2="229.084" gradientUnits="userSpaceOnUse">
<stop stop-color="#E2E0E0"/>
<stop offset="1" stop-color="white"/>
</linearGradient>
</defs>
</svg>
