<svg width="1335" height="1037" viewBox="0 0 1335 1037" fill="none" xmlns="http://www.w3.org/2000/svg">
<mask id="mask0_36_55" style="mask-type:alpha" maskUnits="userSpaceOnUse" x="-2" y="-44" width="1875" height="1082">
<g opacity="0.2">
<line y1="-1" x2="1080" y2="-1" transform="matrix(0.866025 -0.5 0.866025 0.5 0.000976562 497)" stroke="black" stroke-width="2"/>
<line y1="-1" x2="1080" y2="-1" transform="matrix(0.866025 -0.5 0.866025 0.5 31.1777 515)" stroke="black" stroke-width="2"/>
<line y1="-1" x2="1080" y2="-1" transform="matrix(0.866025 -0.5 0.866025 0.5 62.3545 533)" stroke="black" stroke-width="2"/>
<line y1="-1" x2="1080" y2="-1" transform="matrix(0.866025 -0.5 0.866025 0.5 93.5317 551)" stroke="black" stroke-width="2"/>
<line y1="-1" x2="1080" y2="-1" transform="matrix(0.866025 -0.5 0.866025 0.5 124.708 569)" stroke="black" stroke-width="2"/>
<line y1="-1" x2="1080" y2="-1" transform="matrix(0.866025 -0.5 0.866025 0.5 155.885 587)" stroke="black" stroke-width="2"/>
<line y1="-1" x2="1080" y2="-1" transform="matrix(0.866025 -0.5 0.866025 0.5 187.062 605)" stroke="black" stroke-width="2"/>
<line y1="-1" x2="1080" y2="-1" transform="matrix(0.866025 -0.5 0.866025 0.5 218.239 623)" stroke="black" stroke-width="2"/>
<line y1="-1" x2="1080" y2="-1" transform="matrix(0.866025 -0.5 0.866025 0.5 249.416 641)" stroke="black" stroke-width="2"/>
<line y1="-1" x2="1080" y2="-1" transform="matrix(0.866025 -0.5 0.866025 0.5 280.593 659)" stroke="black" stroke-width="2"/>
<line y1="-1" x2="1080" y2="-1" transform="matrix(0.866025 -0.5 0.866025 0.5 311.77 677)" stroke="black" stroke-width="2"/>
<line y1="-1" x2="1080" y2="-1" transform="matrix(0.866025 -0.5 0.866025 0.5 342.947 695)" stroke="black" stroke-width="2"/>
<line y1="-1" x2="1080" y2="-1" transform="matrix(0.866025 -0.5 0.866025 0.5 374.124 713)" stroke="black" stroke-width="2"/>
<line y1="-1" x2="1080" y2="-1" transform="matrix(0.866025 -0.5 0.866025 0.5 405.301 731)" stroke="black" stroke-width="2"/>
<line y1="-1" x2="1080" y2="-1" transform="matrix(0.866025 -0.5 0.866025 0.5 436.478 749)" stroke="black" stroke-width="2"/>
<line y1="-1" x2="1080" y2="-1" transform="matrix(0.866025 -0.5 0.866025 0.5 467.655 767)" stroke="black" stroke-width="2"/>
<line y1="-1" x2="1080" y2="-1" transform="matrix(0.866025 -0.5 0.866025 0.5 498.832 785)" stroke="black" stroke-width="2"/>
<line y1="-1" x2="1080" y2="-1" transform="matrix(0.866025 -0.5 0.866025 0.5 530.008 803)" stroke="black" stroke-width="2"/>
<line y1="-1" x2="1080" y2="-1" transform="matrix(0.866025 -0.5 0.866025 0.5 561.186 821)" stroke="black" stroke-width="2"/>
<line y1="-1" x2="1080" y2="-1" transform="matrix(0.866025 -0.5 0.866025 0.5 592.362 839)" stroke="black" stroke-width="2"/>
<line y1="-1" x2="1080" y2="-1" transform="matrix(0.866025 -0.5 0.866025 0.5 623.539 857)" stroke="black" stroke-width="2"/>
<line y1="-1" x2="1080" y2="-1" transform="matrix(0.866025 -0.5 0.866025 0.5 654.716 875)" stroke="black" stroke-width="2"/>
<line y1="-1" x2="1080" y2="-1" transform="matrix(0.866025 -0.5 0.866025 0.5 685.893 893)" stroke="black" stroke-width="2"/>
<line y1="-1" x2="1080" y2="-1" transform="matrix(0.866025 -0.5 0.866025 0.5 717.07 911)" stroke="black" stroke-width="2"/>
<line y1="-1" x2="1080" y2="-1" transform="matrix(0.866025 -0.5 0.866025 0.5 748.247 929)" stroke="black" stroke-width="2"/>
<line y1="-1" x2="1080" y2="-1" transform="matrix(0.866025 -0.5 0.866025 0.5 779.424 947)" stroke="black" stroke-width="2"/>
<line y1="-1" x2="1080" y2="-1" transform="matrix(0.866025 -0.5 0.866025 0.5 810.601 965)" stroke="black" stroke-width="2"/>
<line y1="-1" x2="1080" y2="-1" transform="matrix(0.866025 -0.5 0.866025 0.5 841.778 983)" stroke="black" stroke-width="2"/>
<line y1="-1" x2="1080" y2="-1" transform="matrix(0.866025 -0.5 0.866025 0.5 872.955 1001)" stroke="black" stroke-width="2"/>
<line y1="-1" x2="1080" y2="-1" transform="matrix(0.866025 -0.5 0.866025 0.5 904.131 1019)" stroke="black" stroke-width="2"/>
<line y1="-1" x2="1080" y2="-1" transform="matrix(0.866025 -0.5 0.866025 0.5 935.308 1037)" stroke="black" stroke-width="2"/>
<line y1="-1" x2="1080" y2="-1" transform="matrix(0.866025 0.5 -0.866026 0.5 935.306 -42.9996)" stroke="black" stroke-width="2"/>
<line y1="-1" x2="1080" y2="-1" transform="matrix(0.866025 0.5 -0.866026 0.5 904.129 -24.9996)" stroke="black" stroke-width="2"/>
<line y1="-1" x2="1080" y2="-1" transform="matrix(0.866025 0.5 -0.866026 0.5 872.952 -6.99951)" stroke="black" stroke-width="2"/>
<line y1="-1" x2="1080" y2="-1" transform="matrix(0.866025 0.5 -0.866026 0.5 841.775 11.0005)" stroke="black" stroke-width="2"/>
<line y1="-1" x2="1080" y2="-1" transform="matrix(0.866025 0.5 -0.866026 0.5 810.598 29.0004)" stroke="black" stroke-width="2"/>
<line y1="-1" x2="1080" y2="-1" transform="matrix(0.866025 0.5 -0.866026 0.5 779.421 47.0004)" stroke="black" stroke-width="2"/>
<line y1="-1" x2="1080" y2="-1" transform="matrix(0.866025 0.5 -0.866026 0.5 748.244 65.0004)" stroke="black" stroke-width="2"/>
<line y1="-1" x2="1080" y2="-1" transform="matrix(0.866025 0.5 -0.866026 0.5 717.067 83.0004)" stroke="black" stroke-width="2"/>
<line y1="-1" x2="1080" y2="-1" transform="matrix(0.866025 0.5 -0.866026 0.5 685.891 101)" stroke="black" stroke-width="2"/>
<line y1="-1" x2="1080" y2="-1" transform="matrix(0.866025 0.5 -0.866026 0.5 654.713 119)" stroke="black" stroke-width="2"/>
<line y1="-1" x2="1080" y2="-1" transform="matrix(0.866025 0.5 -0.866026 0.5 623.536 137)" stroke="black" stroke-width="2"/>
<line y1="-1" x2="1080" y2="-1" transform="matrix(0.866025 0.5 -0.866026 0.5 592.359 155)" stroke="black" stroke-width="2"/>
<line y1="-1" x2="1080" y2="-1" transform="matrix(0.866025 0.5 -0.866026 0.5 561.183 173.001)" stroke="black" stroke-width="2"/>
<line y1="-1" x2="1080" y2="-1" transform="matrix(0.866025 0.5 -0.866026 0.5 530.006 191)" stroke="black" stroke-width="2"/>
<line y1="-1" x2="1080" y2="-1" transform="matrix(0.866025 0.5 -0.866026 0.5 498.829 209)" stroke="black" stroke-width="2"/>
<line y1="-1" x2="1080" y2="-1" transform="matrix(0.866025 0.5 -0.866026 0.5 467.652 227)" stroke="black" stroke-width="2"/>
<line y1="-1" x2="1080" y2="-1" transform="matrix(0.866025 0.5 -0.866026 0.5 436.475 245)" stroke="black" stroke-width="2"/>
<line y1="-1" x2="1080" y2="-1" transform="matrix(0.866025 0.5 -0.866026 0.5 405.298 263)" stroke="black" stroke-width="2"/>
<line y1="-1" x2="1080" y2="-1" transform="matrix(0.866025 0.5 -0.866026 0.5 374.121 281)" stroke="black" stroke-width="2"/>
<line y1="-1" x2="1080" y2="-1" transform="matrix(0.866025 0.5 -0.866026 0.5 342.944 299)" stroke="black" stroke-width="2"/>
<line y1="-1" x2="1080" y2="-1" transform="matrix(0.866025 0.5 -0.866026 0.5 311.767 317)" stroke="black" stroke-width="2"/>
<line y1="-1" x2="1080" y2="-1" transform="matrix(0.866025 0.5 -0.866026 0.5 280.59 335)" stroke="black" stroke-width="2"/>
<line y1="-1" x2="1080" y2="-1" transform="matrix(0.866025 0.5 -0.866026 0.5 249.414 353)" stroke="black" stroke-width="2"/>
<line y1="-1" x2="1080" y2="-1" transform="matrix(0.866025 0.5 -0.866026 0.5 218.237 371)" stroke="black" stroke-width="2"/>
<line y1="-1" x2="1080" y2="-1" transform="matrix(0.866025 0.5 -0.866026 0.5 187.06 389)" stroke="black" stroke-width="2"/>
<line y1="-1" x2="1080" y2="-1" transform="matrix(0.866025 0.5 -0.866026 0.5 155.883 407)" stroke="black" stroke-width="2"/>
<line y1="-1" x2="1080" y2="-1" transform="matrix(0.866025 0.5 -0.866026 0.5 124.706 425)" stroke="black" stroke-width="2"/>
<line y1="-1" x2="1080" y2="-1" transform="matrix(0.866025 0.5 -0.866026 0.5 93.5288 443)" stroke="black" stroke-width="2"/>
<line y1="-1" x2="1080" y2="-1" transform="matrix(0.866025 0.5 -0.866026 0.5 62.3516 461)" stroke="black" stroke-width="2"/>
<line y1="-1" x2="1080" y2="-1" transform="matrix(0.866025 0.5 -0.866026 0.5 31.1753 479)" stroke="black" stroke-width="2"/>
<line y1="-1" x2="1080" y2="-1" transform="matrix(0.866025 0.5 -0.866026 0.5 -0.00195312 497)" stroke="black" stroke-width="2"/>
</g>
</mask>
<g mask="url(#mask0_36_55)">
<g filter="url(#filter0_f_36_55)">
<ellipse cx="235.764" cy="192.175" rx="235.764" ry="192.175" transform="matrix(0.866025 -0.5 0.866025 0.5 585.146 617.64)" fill="#D9D9D9"/>
</g>
</g>
<defs>
<filter id="filter0_f_36_55" x="592.33" y="343.758" width="726.844" height="504.174" filterUnits="userSpaceOnUse" color-interpolation-filters="sRGB">
<feFlood flood-opacity="0" result="BackgroundImageFix"/>
<feBlend mode="normal" in="SourceGraphic" in2="BackgroundImageFix" result="shape"/>
<feGaussianBlur stdDeviation="50" result="effect1_foregroundBlur_36_55"/>
</filter>
</defs>
</svg>
