<svg width="1120" height="323" viewBox="0 0 1120 323" fill="none" xmlns="http://www.w3.org/2000/svg">
<line y1="-0.5" x2="1080" y2="-0.5" transform="matrix(0.866025 -0.5 0.866025 0.5 -375.304 80.0001)" stroke="#E1F8E2"/>
<line y1="-0.5" x2="1080" y2="-0.5" transform="matrix(0.866025 -0.5 0.866025 0.5 -344.127 98.0001)" stroke="#E1F8E2"/>
<line y1="-0.5" x2="1080" y2="-0.5" transform="matrix(0.866025 -0.5 0.866025 0.5 -312.95 116)" stroke="#E1F8E2"/>
<line y1="-0.5" x2="1080" y2="-0.5" transform="matrix(0.866025 -0.5 0.866025 0.5 -281.773 134)" stroke="#E1F8E2"/>
<line y1="-0.5" x2="1080" y2="-0.5" transform="matrix(0.866025 -0.5 0.866025 0.5 -250.596 152)" stroke="#E1F8E2"/>
<line y1="-0.5" x2="1080" y2="-0.5" transform="matrix(0.866025 -0.5 0.866025 0.5 -219.419 170)" stroke="#E1F8E2"/>
<line y1="-0.5" x2="1080" y2="-0.5" transform="matrix(0.866025 -0.5 0.866025 0.5 -188.242 188)" stroke="#E1F8E2"/>
<line y1="-0.5" x2="1080" y2="-0.5" transform="matrix(0.866025 -0.5 0.866025 0.5 -157.065 206)" stroke="#E1F8E2"/>
<line y1="-0.5" x2="1080" y2="-0.5" transform="matrix(0.866025 -0.5 0.866025 0.5 -125.889 224)" stroke="#E1F8E2"/>
<line y1="-0.5" x2="1080" y2="-0.5" transform="matrix(0.866025 -0.5 0.866025 0.5 -94.7119 242)" stroke="#E1F8E2"/>
<line y1="-0.5" x2="1080" y2="-0.5" transform="matrix(0.866025 -0.5 0.866025 0.5 -63.5347 260)" stroke="#E1F8E2"/>
<line y1="-0.5" x2="1080" y2="-0.5" transform="matrix(0.866025 -0.5 0.866025 0.5 -32.3579 278)" stroke="#E1F8E2"/>
<line y1="-0.5" x2="1080" y2="-0.5" transform="matrix(0.866025 -0.5 0.866025 0.5 -1.18115 296)" stroke="#E1F8E2"/>
<line y1="-0.5" x2="1080" y2="-0.5" transform="matrix(0.866025 -0.5 0.866025 0.5 29.9961 314)" stroke="#E1F8E2"/>
<line y1="-0.5" x2="1080" y2="-0.5" transform="matrix(0.866025 -0.5 0.866025 0.5 61.1729 332)" stroke="#E1F8E2"/>
<line y1="-0.5" x2="1080" y2="-0.5" transform="matrix(0.866025 -0.5 0.866025 0.5 92.3501 350)" stroke="#E1F8E2"/>
<line y1="-0.5" x2="1080" y2="-0.5" transform="matrix(0.866025 -0.5 0.866025 0.5 123.527 368)" stroke="#E1F8E2"/>
<line y1="-0.5" x2="1080" y2="-0.5" transform="matrix(0.866025 -0.5 0.866025 0.5 154.704 386)" stroke="#E1F8E2"/>
<line y1="-0.5" x2="1080" y2="-0.5" transform="matrix(0.866025 -0.5 0.866025 0.5 185.881 404)" stroke="#E1F8E2"/>
<line y1="-0.5" x2="1080" y2="-0.5" transform="matrix(0.866025 -0.5 0.866025 0.5 217.058 422)" stroke="#E1F8E2"/>
<line y1="-0.5" x2="1080" y2="-0.5" transform="matrix(0.866025 -0.5 0.866025 0.5 248.234 440)" stroke="#E1F8E2"/>
<line y1="-0.5" x2="1080" y2="-0.5" transform="matrix(0.866025 -0.5 0.866025 0.5 279.412 458)" stroke="#E1F8E2"/>
<line y1="-0.5" x2="1080" y2="-0.5" transform="matrix(0.866025 -0.5 0.866025 0.5 310.588 476)" stroke="#E1F8E2"/>
<line y1="-0.5" x2="1080" y2="-0.5" transform="matrix(0.866025 -0.5 0.866025 0.5 341.765 494)" stroke="#E1F8E2"/>
<line y1="-0.5" x2="1080" y2="-0.5" transform="matrix(0.866025 -0.5 0.866025 0.5 372.942 512)" stroke="#E1F8E2"/>
<line y1="-0.5" x2="1080" y2="-0.5" transform="matrix(0.866025 -0.5 0.866025 0.5 404.119 530)" stroke="#E1F8E2"/>
<line y1="-0.5" x2="1080" y2="-0.5" transform="matrix(0.866025 -0.5 0.866025 0.5 435.296 548)" stroke="#E1F8E2"/>
<line y1="-0.5" x2="1080" y2="-0.5" transform="matrix(0.866025 -0.5 0.866025 0.5 466.473 566)" stroke="#E1F8E2"/>
<line y1="-0.5" x2="1080" y2="-0.5" transform="matrix(0.866025 -0.5 0.866025 0.5 497.65 584)" stroke="#E1F8E2"/>
<line y1="-0.5" x2="1080" y2="-0.5" transform="matrix(0.866025 -0.5 0.866025 0.5 528.827 602)" stroke="#E1F8E2"/>
<line y1="-0.5" x2="1080" y2="-0.5" transform="matrix(0.866025 -0.5 0.866025 0.5 560.003 620)" stroke="#E1F8E2"/>
<line y1="-0.5" x2="1080" y2="-0.5" transform="matrix(0.866025 0.5 -0.866026 0.5 559.98 -459.998)" stroke="#E1F8E2"/>
<line y1="-0.5" x2="1080" y2="-0.5" transform="matrix(0.866025 0.5 -0.866026 0.5 528.803 -441.998)" stroke="#E1F8E2"/>
<line y1="-0.5" x2="1080" y2="-0.5" transform="matrix(0.866025 0.5 -0.866026 0.5 497.626 -423.998)" stroke="#E1F8E2"/>
<line y1="-0.5" x2="1080" y2="-0.5" transform="matrix(0.866025 0.5 -0.866026 0.5 466.449 -405.998)" stroke="#E1F8E2"/>
<line y1="-0.5" x2="1080" y2="-0.5" transform="matrix(0.866025 0.5 -0.866026 0.5 435.272 -387.998)" stroke="#E1F8E2"/>
<line y1="-0.5" x2="1080" y2="-0.5" transform="matrix(0.866025 0.5 -0.866026 0.5 404.095 -369.998)" stroke="#E1F8E2"/>
<line y1="-0.5" x2="1080" y2="-0.5" transform="matrix(0.866025 0.5 -0.866026 0.5 372.918 -351.998)" stroke="#E1F8E2"/>
<line y1="-0.5" x2="1080" y2="-0.5" transform="matrix(0.866025 0.5 -0.866026 0.5 341.741 -333.998)" stroke="#E1F8E2"/>
<line y1="-0.5" x2="1080" y2="-0.5" transform="matrix(0.866025 0.5 -0.866026 0.5 310.565 -315.998)" stroke="#E1F8E2"/>
<line y1="-0.5" x2="1080" y2="-0.5" transform="matrix(0.866025 0.5 -0.866026 0.5 279.388 -297.998)" stroke="#E1F8E2"/>
<line y1="-0.5" x2="1080" y2="-0.5" transform="matrix(0.866025 0.5 -0.866026 0.5 248.21 -279.998)" stroke="#E1F8E2"/>
<line y1="-0.5" x2="1080" y2="-0.5" transform="matrix(0.866025 0.5 -0.866026 0.5 217.034 -261.998)" stroke="#E1F8E2"/>
<line y1="-0.5" x2="1080" y2="-0.5" transform="matrix(0.866025 0.5 -0.866026 0.5 185.857 -243.998)" stroke="#E1F8E2"/>
<line y1="-0.5" x2="1080" y2="-0.5" transform="matrix(0.866025 0.5 -0.866026 0.5 154.68 -225.998)" stroke="#E1F8E2"/>
<line y1="-0.5" x2="1080" y2="-0.5" transform="matrix(0.866025 0.5 -0.866026 0.5 123.503 -207.998)" stroke="#E1F8E2"/>
<line y1="-0.5" x2="1080" y2="-0.5" transform="matrix(0.866025 0.5 -0.866026 0.5 92.3262 -189.998)" stroke="#E1F8E2"/>
<line y1="-0.5" x2="1080" y2="-0.5" transform="matrix(0.866025 0.5 -0.866026 0.5 61.1494 -171.998)" stroke="#E1F8E2"/>
<line y1="-0.5" x2="1080" y2="-0.5" transform="matrix(0.866025 0.5 -0.866026 0.5 29.9727 -153.998)" stroke="#E1F8E2"/>
<line y1="-0.5" x2="1080" y2="-0.5" transform="matrix(0.866025 0.5 -0.866026 0.5 -1.20459 -135.998)" stroke="#E1F8E2"/>
<line y1="-0.5" x2="1080" y2="-0.5" transform="matrix(0.866025 0.5 -0.866026 0.5 -32.3813 -117.998)" stroke="#E1F8E2"/>
<line y1="-0.5" x2="1080" y2="-0.5" transform="matrix(0.866025 0.5 -0.866026 0.5 -63.5586 -99.9982)" stroke="#E1F8E2"/>
<line y1="-0.5" x2="1080" y2="-0.5" transform="matrix(0.866025 0.5 -0.866026 0.5 -94.7354 -81.9982)" stroke="#E1F8E2"/>
<line y1="-0.5" x2="1080" y2="-0.5" transform="matrix(0.866025 0.5 -0.866026 0.5 -125.912 -63.9982)" stroke="#E1F8E2"/>
<line y1="-0.5" x2="1080" y2="-0.5" transform="matrix(0.866025 0.5 -0.866026 0.5 -157.089 -45.998)" stroke="#E1F8E2"/>
<line y1="-0.5" x2="1080" y2="-0.5" transform="matrix(0.866025 0.5 -0.866026 0.5 -188.266 -27.9982)" stroke="#E1F8E2"/>
<line y1="-0.5" x2="1080" y2="-0.5" transform="matrix(0.866025 0.5 -0.866026 0.5 -219.443 -9.9982)" stroke="#E1F8E2"/>
<line y1="-0.5" x2="1080" y2="-0.5" transform="matrix(0.866025 0.5 -0.866026 0.5 -250.62 8.00192)" stroke="#E1F8E2"/>
<line y1="-0.5" x2="1080" y2="-0.5" transform="matrix(0.866025 0.5 -0.866026 0.5 -281.797 26.0018)" stroke="#E1F8E2"/>
<line y1="-0.5" x2="1080" y2="-0.5" transform="matrix(0.866025 0.5 -0.866026 0.5 -312.974 44.0018)" stroke="#E1F8E2"/>
<line y1="-0.5" x2="1080" y2="-0.5" transform="matrix(0.866025 0.5 -0.866026 0.5 -344.15 62.0018)" stroke="#E1F8E2"/>
<line y1="-0.5" x2="1080" y2="-0.5" transform="matrix(0.866025 0.5 -0.866026 0.5 -375.328 80.0018)" stroke="#E1F8E2"/>
<g filter="url(#filter0_f_36_136)">
<ellipse cx="277.075" cy="225.849" rx="277.075" ry="225.849" transform="matrix(0.866025 -0.5 0.866025 0.5 124 89.4586)" fill="#ECFCED"/>
</g>
<defs>
<filter id="filter0_f_36_136" x="149.965" y="-214.891" width="819.16" height="557.472" filterUnits="userSpaceOnUse" color-interpolation-filters="sRGB">
<feFlood flood-opacity="0" result="BackgroundImageFix"/>
<feBlend mode="normal" in="SourceGraphic" in2="BackgroundImageFix" result="shape"/>
<feGaussianBlur stdDeviation="50" result="effect1_foregroundBlur_36_136"/>
</filter>
</defs>
</svg>
