<svg width="643" height="386" viewBox="0 0 643 386" fill="none" xmlns="http://www.w3.org/2000/svg">
<g filter="url(#filter0_d_36_122)">
<rect width="288.218" height="288.218" rx="44" transform="matrix(0.866025 -0.5 0.866025 0.5 72 226.109)" fill="white"/>
</g>
<path d="M72 169.884C72 153.381 83.3551 137.553 103.567 125.884L283.499 22C304.544 9.8497 338.665 9.84972 359.71 22L554.849 134.664C565.295 140.695 570.994 148.937 570.615 157.462L568.049 215.162C567.696 223.087 562.117 230.635 552.451 236.266L360.06 348.331C339.06 360.563 304.844 360.618 283.726 348.454L103.657 244.734C83.3898 233.06 72 217.211 72 200.683L72 169.884Z" fill="black"/>
<path d="M72 169.884C72 153.381 83.3551 137.553 103.567 125.884L283.499 22C304.544 9.8497 338.665 9.84972 359.71 22L554.849 134.664C565.295 140.695 570.994 148.937 570.615 157.462L568.049 215.162C567.696 223.087 562.117 230.635 552.451 236.266L360.06 348.331C339.06 360.563 304.844 360.618 283.726 348.454L103.657 244.734C83.3898 233.06 72 217.211 72 200.683L72 169.884Z" fill="url(#paint0_linear_36_122)" fill-opacity="0.24"/>
<defs>
<filter id="filter0_d_36_122" x="70.3213" y="74.8872" width="502.566" height="310.444" filterUnits="userSpaceOnUse" color-interpolation-filters="sRGB">
<feFlood flood-opacity="0" result="BackgroundImageFix"/>
<feColorMatrix in="SourceAlpha" type="matrix" values="0 0 0 0 0 0 0 0 0 0 0 0 0 0 0 0 0 0 127 0" result="hardAlpha"/>
<feOffset dy="4"/>
<feGaussianBlur stdDeviation="12"/>
<feComposite in2="hardAlpha" operator="out"/>
<feColorMatrix type="matrix" values="0 0 0 0 0.962748 0 0 0 0 0.952221 0 0 0 0 0.950156 0 0 0 1 0"/>
<feBlend mode="normal" in2="BackgroundImageFix" result="effect1_dropShadow_36_122"/>
<feBlend mode="normal" in="SourceGraphic" in2="effect1_dropShadow_36_122" result="shape"/>
</filter>
<linearGradient id="paint0_linear_36_122" x1="301.5" y1="31.5" x2="73.0858" y2="427.125" gradientUnits="userSpaceOnUse">
<stop stop-color="#E2E0E0"/>
<stop offset="1" stop-color="white"/>
</linearGradient>
</defs>
</svg>
